<svg id="color" enable-background="new 0 0 24 24" height="512" viewBox="0 0 24 24" width="512" xmlns="http://www.w3.org/2000/svg"><path d="m12 0h-.01c-.196 0-.385.077-.525.214l-11.23 11c-.122.119-.199.276-.22.445-.013.11-.015.219-.015.341 0 6.617 5.383 12 12 12s12-5.383 12-12-5.383-12-12-12z" fill="#2196f3"/><path d="m12.285.065c-.28-.126-.61-.066-.83.148l-11.23 11c-.22.216-.286.544-.166.827.117.279.39.46.691.46h.017c6.431-.148 11.686-5.295 11.962-11.718.014-.307-.163-.592-.444-.717z" fill="#64b5f6"/><path d="m9.024 9.025c-2.149 2.09-5.057 3.401-8.257 3.475h-.017c-.301 0-.574-.181-.691-.459-.031-.073-.049-.148-.056-.224-.002.059-.003.119-.003.183 0 6.617 5.383 12 12 12 3.308 0 6.308-1.345 8.481-3.518z" fill="#1d83d4"/><path d="m5.776 5.777-5.551 5.437c-.163.161-.241.383-.222.603.007.076.025.151.056.224.117.278.39.459.691.459h.018c3.199-.074 6.108-1.385 8.257-3.475z" fill="#579ed6"/><g fill="#fafafa"><path d="m16.212 11.263-1.237 1.237-.707-.707 1.238-1.237c.293-.293.293-.768 0-1.061s-.768-.293-1.061 0l-1.238 1.237-.707-.707 1.237-1.237c.293-.293.293-.768 0-1.061s-.768-.293-1.061 0l-1.768 1.768c-.141.141-.22.331-.22.53s.079.39.22.53l1.767 1.767.001.001.001.001 1.767 1.767c.146.146.338.22.53.22s.384-.073.53-.22l1.768-1.768c.293-.293.293-.768 0-1.061-.292-.292-.767-.292-1.06.001z"/><path d="m19.395 8.081-1.238 1.237-.707-.707 1.237-1.238c.293-.293.293-.768 0-1.061s-.768-.293-1.061 0l-1.237 1.238-.708-.708 1.238-1.237c.293-.293.293-.768 0-1.061s-.768-.293-1.061 0l-1.768 1.768c-.141.141-.22.331-.22.53s.079.39.22.53l1.768 1.768.001.001v.001l1.767 1.767c.146.146.338.22.53.22s.384-.073.53-.22l1.768-1.768c.293-.293.293-.768 0-1.061-.292-.292-.766-.292-1.059.001z"/><path d="m13.561 14.225h-1.814c.453-.767.35-1.773-.308-2.432-.78-.78-2.05-.779-2.829 0l-.884.884c-.141.141-.22.331-.22.53s.079.39.22.53l1.755 1.755.024.024 1.756 1.756c.146.146.338.22.53.22s.384-.073.53-.22c.293-.293.293-.768 0-1.061l-.487-.487h1.725c.414 0 .75-.336.75-.75.002-.413-.334-.749-.748-.749zm-3.182-.664-.354.354-.707-.707.354-.354c.195-.194.513-.196.707 0 .194.195.194.511 0 .707z"/><path d="m9.141 15.858c-.293-.293-.769-.293-1.061 0l-1.237 1.238-.708-.708 1.238-1.237c.293-.293.293-.768 0-1.061s-.768-.293-1.061 0l-1.768 1.768c-.141.141-.22.331-.22.53s.079.39.22.53l1.768 1.768v.001h.001l1.767 1.768c.146.146.338.22.53.22s.384-.073.53-.22c.293-.293.293-.768 0-1.061l-1.237-1.237 1.237-1.238c.294-.293.294-.768.001-1.061z"/></g><path d="m15.637 9.673-2.805 2.805 1.613 1.612c.146.146.338.22.53.22s.384-.073.53-.22l1.768-1.768c.293-.293.293-.768 0-1.061-.146-.146-.338-.22-.53-.22s-.384.073-.53.22l-1.238 1.239-.707-.707 1.238-1.237c.238-.239.282-.599.131-.883z" fill="#dadada"/><path d="m18.819 6.491-2.806 2.806 1.613 1.612c.146.146.338.22.53.22s.384-.073.53-.22l1.768-1.768c.293-.293.293-.768 0-1.061-.146-.146-.338-.22-.53-.22s-.384.073-.53.22l-1.238 1.237-.706-.706 1.237-1.238c.239-.239.283-.598.132-.882z" fill="#dadada"/><path d="m12.022 13.288-2.372 2.372 1.612 1.612c.146.146.338.22.53.22s.384-.073.53-.22c.293-.293.293-.768 0-1.061l-.487-.487h1.725c.414 0 .75-.336.75-.75s-.336-.75-.75-.75h-1.814c.171-.288.263-.611.276-.936z" fill="#dadada"/><path d="m9.273 16.037-2.805 2.805 1.613 1.613c.146.146.338.22.53.22s.384-.073.53-.22c.293-.293.293-.768 0-1.061l-1.237-1.237 1.237-1.238c.239-.239.283-.599.132-.882z" fill="#dadada"/></svg>